ffmpeg started on 2016-12-04 at 18:29:13
Report written to "Output/x264/results/ffmpeg/crowd_run_2160p50superfast15000k.log"
Command line:
Tools/ffmpeg/ffmpeg -benchmark -y -i Input/y4m/crowd_run_2160p50.y4m -c:v libx264 -preset superfast -b:v 15000k -an Output/x264/encoded/crowd_run_2160p50superfast15000k.mkv
ffmpeg version N-82227-gdb23fde Copyright (c) 2000-2016 the FFmpeg developers
  built with gcc 5.4.0 (Ubuntu 5.4.0-6ubuntu1~16.04.2) 20160609
  configuration: --prefix=/home/jaroslav/ffmpeg_build --pkg-config-flags=--static --extra-cflags=-I/home/jaroslav/ffmpeg_build/include --extra-ldflags=-L/home/jaroslav/ffmpeg_build/lib --bindir=/home/jaroslav/bin --enable-gpl --enable-libass --enable-libfdk-aac --enable-libfreetype --enable-libmp3lame --enable-libopus --enable-libtheora --enable-libvorbis --enable-libvpx --enable-libx264 --enable-libx265 --enable-nvenc --enable-libmfx --enable-libxvid --enable-libgsm --enable-libopencore-amrnb --enable-version3 --enable-nonfree
  libavutil      55. 35.100 / 55. 35.100
  libavcodec     57. 66.101 / 57. 66.101
  libavformat    57. 57.100 / 57. 57.100
  libavdevice    57.  2.100 / 57.  2.100
  libavfilter     6. 66.100 /  6. 66.100
  libswscale      4.  3.100 /  4.  3.100
  libswresample   2.  4.100 /  2.  4.100
  libpostproc    54.  2.100 / 54.  2.100
Input #0, yuv4mpegpipe, from 'Input/y4m/crowd_run_2160p50.y4m':
  Duration: 00:00:10.00, start: 0.000000, bitrate: 4976642 kb/s
    Stream #0:0: Video: rawvideo (I420 / 0x30323449), yuv420p(progressive), 3840x2160, SAR 1:1 DAR 16:9, 50 fps, 50 tbr, 50 tbn, 50 tbc
[libx264 @ 0x3ea01c0] using SAR=1/1
[libx264 @ 0x3ea01c0] using cpu capabilities: MMX2 SSE2Fast SSSE3 SSE4.2 AVX FMA3 AVX2 LZCNT BMI2
[libx264 @ 0x3ea01c0] profile High, level 5.2
[libx264 @ 0x3ea01c0] 264 - core 148 - H.264/MPEG-4 AVC codec - Copyleft 2003-2016 - http://www.videolan.org/x264.html - options: cabac=1 ref=1 deblock=1:0:0 analyse=0x3:0x3 me=dia subme=1 psy=1 psy_rd=1.00:0.00 mixed_ref=0 me_range=16 chroma_me=1 trellis=0 8x8dct=1 cqm=0 deadzone=21,11 fast_pskip=1 chroma_qp_offset=0 threads=6 lookahead_threads=1 sliced_threads=0 nr=0 decimate=1 interlaced=0 bluray_compat=0 constrained_intra=0 bframes=3 b_pyramid=2 b_adapt=1 b_bias=0 direct=1 weightb=1 open_gop=0 weightp=1 keyint=250 keyint_min=25 scenecut=40 intra_refresh=0 rc=abr mbtree=0 bitrate=15000 ratetol=1.0 qcomp=0.60 qpmin=0 qpmax=69 qpstep=4 ip_ratio=1.40 pb_ratio=1.30 aq=1:1.00
Output #0, matroska, to 'Output/x264/encoded/crowd_run_2160p50superfast15000k.mkv':
  Metadata:
    encoder         : Lavf57.57.100
    Stream #0:0: Video: h264 (libx264) (H264 / 0x34363248), yuv420p, 3840x2160 [SAR 1:1 DAR 16:9], q=-1--1, 15000 kb/s, 50 fps, 1k tbn, 50 tbc
    Metadata:
      encoder         : Lavc57.66.101 libx264
    Side data:
      cpb: bitrate max/min/avg: 0/0/15000000 buffer size: 0 vbv_delay: -1
Stream mapping:
  Stream #0:0 -> #0:0 (rawvideo (native) -> h264 (libx264))
Press [q] to stop, [?] for help
frame=   18 fps=0.0 q=41.0 size=       1kB time=00:00:00.04 bitrate= 143.0kbits/s speed=0.0808x    frame=   31 fps= 29 q=39.0 size=       1kB time=00:00:00.30 bitrate=  19.5kbits/s speed=0.283x    frame=   42 fps= 19 q=37.0 size=       1kB time=00:00:00.52 bitrate=  11.3kbits/s speed=0.23x    frame=   44 fps= 15 q=39.0 size=       1kB time=00:00:00.56 bitrate=  10.5kbits/s speed=0.187x    frame=   47 fps= 12 q=38.0 size=       1kB time=00:00:00.62 bitrate=   9.4kbits/s speed=0.161x    frame=   48 fps= 11 q=39.0 size=       1kB time=00:00:00.64 bitrate=   9.1kbits/s speed=0.143x    frame=   49 fps=9.4 q=39.0 size=       1kB time=00:00:00.66 bitrate=   8.9kbits/s speed=0.127x    frame=   50 fps=8.5 q=37.0 size=       1kB time=00:00:00.68 bitrate=   8.6kbits/s speed=0.116x    frame=   52 fps=7.8 q=39.0 size=       1kB time=00:00:00.72 bitrate=   8.1kbits/s speed=0.109x    frame=   54 fps=7.3 q=37.0 size=       1kB time=00:00:00.76 bitrate=   7.7kbits/s speed=0.103x    frame=   56 fps=6.9 q=39.0 size=       1kB time=00:00:00.80 bitrate=   7.3kbits/s speed=0.0994x    frame=   58 fps=6.6 q=37.0 size=       1kB time=00:00:00.84 bitrate=   7.0kbits/s speed=0.0953x    frame=   60 fps=6.1 q=39.0 size=       1kB time=00:00:00.88 bitrate=   6.7kbits/s speed=0.0898x    frame=   63 fps=5.9 q=38.0 size=       1kB time=00:00:00.94 bitrate=   6.2kbits/s speed=0.0878x    frame=   66 fps=5.7 q=37.0 size=       1kB time=00:00:01.00 bitrate=   5.9kbits/s speed=0.0871x    frame=   69 fps=5.6 q=39.0 size=       1kB time=00:00:01.06 bitrate=   5.5kbits/s speed=0.0862x    frame=   71 fps=5.4 q=38.0 size=       1kB time=00:00:01.10 bitrate=   5.3kbits/s speed=0.0839x    frame=   72 fps=5.1 q=39.0 size=       1kB time=00:00:01.12 bitrate=   5.2kbits/s speed=0.0796x    frame=   74 fps=5.1 q=37.0 size=       1kB time=00:00:01.16 bitrate=   5.1kbits/s speed=0.0793x    frame=   75 fps=4.9 q=38.0 size=       1kB time=00:00:01.18 bitrate=   5.0kbits/s speed=0.077x    frame=   78 fps=4.8 q=37.0 size=       1kB time=00:00:01.24 bitrate=   4.7kbits/s speed=0.077x    frame=   81 fps=4.8 q=39.0 size=       1kB time=00:00:01.30 bitrate=   4.5kbits/s speed=0.0773x    frame=   85 fps=4.8 q=39.0 size=       1kB time=00:00:01.38 bitrate=   4.2kbits/s speed=0.0776x    frame=   88 fps=4.8 q=39.0 size=       1kB time=00:00:01.44 bitrate=   4.1kbits/s speed=0.0787x    frame=   92 fps=4.8 q=39.0 size=       1kB time=00:00:01.52 bitrate=   3.9kbits/s speed=0.0795x    frame=   93 fps=4.7 q=39.0 size=       1kB time=00:00:01.54 bitrate=   3.8kbits/s speed=0.0784x    frame=   95 fps=4.6 q=38.0 size=       1kB time=00:00:01.58 bitrate=   3.7kbits/s speed=0.0773x    frame=   98 fps=4.6 q=37.0 size=       1kB time=00:00:01.64 bitrate=   3.6kbits/s speed=0.0769x    frame=  100 fps=4.5 q=39.0 size=       1kB time=00:00:01.68 bitrate=   3.5kbits/s speed=0.0761x    frame=  105 fps=4.6 q=39.0 size=       1kB time=00:00:01.78 bitrate=   3.3kbits/s speed=0.0776x    frame=  106 fps=4.5 q=37.0 size=       1kB time=00:00:01.80 bitrate=   3.3kbits/s speed=0.0768x    frame=  107 fps=4.4 q=38.0 size=       1kB time=00:00:01.82 bitrate=   3.2kbits/s speed=0.0756x    frame=  109 fps=4.4 q=39.0 size=       1kB time=00:00:01.86 bitrate=   3.2kbits/s speed=0.0753x    frame=  110 fps=4.4 q=37.0 size=       1kB time=00:00:01.88 bitrate=   3.1kbits/s speed=0.0744x    frame=  112 fps=4.3 q=39.0 size=       1kB time=00:00:01.92 bitrate=   3.1kbits/s speed=0.0732x    frame=  118 fps=4.3 q=37.0 size=       1kB time=00:00:02.04 bitrate=   2.9kbits/s speed=0.0746x    frame=  119 fps=4.3 q=38.0 size=       1kB time=00:00:02.06 bitrate=   2.8kbits/s speed=0.074x    frame=  121 fps=4.2 q=39.0 size=       1kB time=00:00:02.10 bitrate=   2.8kbits/s speed=0.0737x    frame=  126 fps=4.3 q=37.0 size=       1kB time=00:00:02.20 bitrate=   2.7kbits/s speed=0.0752x    frame=  127 fps=4.2 q=38.0 size=       1kB time=00:00:02.22 bitrate=   2.6kbits/s speed=0.0741x    frame=  128 fps=4.2 q=39.0 size=       1kB time=00:00:02.24 bitrate=   2.6kbits/s speed=0.0731x    frame=  129 fps=4.1 q=39.0 size=       1kB time=00:00:02.26 bitrate=   2.6kbits/s speed=0.0725x    frame=  130 fps=4.1 q=37.0 size=       1kB time=00:00:02.28 bitrate=   2.6kbits/s speed=0.0717x    frame=  133 fps=4.1 q=39.0 size=       1kB time=00:00:02.34 bitrate=   2.5kbits/s speed=0.0724x    frame=  135 fps=4.1 q=38.0 size=       1kB time=00:00:02.38 bitrate=   2.5kbits/s speed=0.072x    frame=  137 fps=4.1 q=39.0 size=       1kB time=00:00:02.42 bitrate=   2.4kbits/s speed=0.072x    frame=  138 fps=4.0 q=37.0 size=       1kB time=00:00:02.44 bitrate=   2.4kbits/s speed=0.0713x    frame=  139 fps=4.0 q=38.0 size=       1kB time=00:00:02.46 bitrate=   2.4kbits/s speed=0.0707x    frame=  147 fps=4.2 q=38.0 size=       1kB time=00:00:02.62 bitrate=   2.2kbits/s speed=0.074x    frame=  163 fps=4.5 q=38.0 size=    5130kB time=00:00:02.94 bitrate=14289.6kbits/s speed=0.0819x    frame=  178 fps=4.9 q=37.0 size=    5130kB time=00:00:03.24 bitrate=12966.9kbits/s speed=0.0883x    frame=  183 fps=4.9 q=38.0 size=    5130kB time=00:00:03.34 bitrate=12578.8kbits/s speed=0.0898x    frame=  186 fps=4.9 q=37.0 size=    5130kB time=00:00:03.40 bitrate=12356.8kbits/s speed=0.0888x    frame=  189 fps=4.8 q=39.0 size=    5130kB time=00:00:03.46 bitrate=12142.6kbits/s speed=0.0885x    frame=  191 fps=4.8 q=38.0 size=    5130kB time=00:00:03.50 bitrate=12003.9kbits/s speed=0.0878x    frame=  194 fps=4.7 q=37.0 size=    5130kB time=00:00:03.56 bitrate=11801.6kbits/s speed=0.0867x    frame=  197 fps=4.7 q=39.0 size=    5130kB time=00:00:03.62 bitrate=11606.1kbits/s speed=0.0858x    frame=  204 fps=4.8 q=39.0 size=    5130kB time=00:00:03.76 bitrate=11174.1kbits/s speed=0.0878x    frame=  218 fps=5.0 q=37.0 size=    5130kB time=00:00:04.04 bitrate=10399.8kbits/s speed=0.0932x    frame=  235 fps=5.4 q=38.0 size=    5130kB time=00:00:04.38 bitrate=9592.7kbits/s speed=0.0998x    frame=  252 fps=5.7 q=39.0 size=    5130kB time=00:00:04.72 bitrate=8901.8kbits/s speed=0.106x    frame=  269 fps=6.0 q=39.0 size=    9290kB time=00:00:05.06 bitrate=15036.7kbits/s speed=0.113x    frame=  286 fps=6.3 q=40.0 size=    9290kB time=00:00:05.40 bitrate=14090.1kbits/s speed=0.119x    frame=  300 fps=6.5 q=37.0 size=    9290kB time=00:00:05.68 bitrate=13395.7kbits/s speed=0.123x    frame=  304 fps=6.5 q=37.0 size=    9290kB time=00:00:05.76 bitrate=13209.6kbits/s speed=0.123x    frame=  321 fps=6.8 q=38.0 size=    9290kB time=00:00:06.10 bitrate=12473.5kbits/s speed=0.129x    frame=  337 fps=7.1 q=38.0 size=    9290kB time=00:00:06.42 bitrate=11851.9kbits/s speed=0.135x    frame=  354 fps=7.3 q=40.0 size=    9290kB time=00:00:06.76 bitrate=11255.8kbits/s speed=0.14x    frame=  371 fps=7.6 q=40.0 size=    9290kB time=00:00:07.10 bitrate=10716.9kbits/s speed=0.146x    frame=  388 fps=7.9 q=37.0 size=    9290kB time=00:00:07.44 bitrate=10227.2kbits/s speed=0.151x    frame=  404 fps=8.1 q=37.0 size=   14434kB time=00:00:07.76 bitrate=15235.4kbits/s speed=0.156x    frame=  411 fps=8.2 q=40.0 size=   14434kB time=00:00:07.90 bitrate=14965.5kbits/s speed=0.157x    frame=  422 fps=8.3 q=39.0 size=   14434kB time=00:00:08.12 bitrate=14560.0kbits/s speed=0.16x    frame=  438 fps=8.5 q=39.0 size=   14434kB time=00:00:08.44 bitrate=14008.1kbits/s speed=0.164x    frame=  454 fps=8.8 q=39.0 size=   14434kB time=00:00:08.76 bitrate=13496.4kbits/s speed=0.169x    frame=  471 fps=9.0 q=39.0 size=   14434kB time=00:00:09.10 bitrate=12992.2kbits/s speed=0.174x    frame=  487 fps=9.2 q=39.0 size=   14434kB time=00:00:09.42 bitrate=12550.9kbits/s speed=0.178x    frame=  500 fps=9.3 q=-1.0 Lsize=   18528kB time=00:00:09.94 bitrate=15268.5kbits/s speed=0.186x    
video:18524kB audio:0kB subtitle:0kB other streams:0kB global headers:0kB muxing overhead: 0.024815%
bench: utime=43.952s
bench: maxrss=904892kB
[libx264 @ 0x3ea01c0] frame I:2     Avg QP:38.09  size:176307
[libx264 @ 0x3ea01c0] frame P:126   Avg QP:38.35  size: 82943
[libx264 @ 0x3ea01c0] frame B:372   Avg QP:41.23  size: 21947
[libx264 @ 0x3ea01c0] consecutive B-frames:  0.8%  0.0%  0.0% 99.2%
[libx264 @ 0x3ea01c0] mb I  I16..4: 31.1% 64.3%  4.6%
[libx264 @ 0x3ea01c0] mb P  I16..4:  5.3% 11.3%  0.2%  P16..4: 40.1%  0.0%  0.0%  0.0%  0.0%    skip:43.1%
[libx264 @ 0x3ea01c0] mb B  I16..4:  0.7%  0.6%  0.0%  B16..8: 21.0%  0.0%  0.0%  direct: 3.8%  skip:73.8%  L0:41.6% L1:54.3% BI: 4.1%
[libx264 @ 0x3ea01c0] final ratefactor: 31.34
[libx264 @ 0x3ea01c0] 8x8 transform intra:62.9% inter:50.6%
[libx264 @ 0x3ea01c0] coded y,uvDC,uvAC intra: 33.5% 43.0% 14.7% inter: 3.9% 6.8% 0.2%
[libx264 @ 0x3ea01c0] i16 v,h,dc,p: 40% 29% 20% 11%
[libx264 @ 0x3ea01c0] i8 v,h,dc,ddl,ddr,vr,hd,vl,hu: 19% 14% 24%  8%  5%  7%  7%  7%  9%
[libx264 @ 0x3ea01c0] i4 v,h,dc,ddl,ddr,vr,hd,vl,hu: 23% 17% 24%  9%  5%  5%  5%  6%  6%
[libx264 @ 0x3ea01c0] i8c dc,h,v,p: 57% 15% 23%  5%
[libx264 @ 0x3ea01c0] Weighted P-Frames: Y:0.8% UV:0.0%
[libx264 @ 0x3ea01c0] kb/s:15174.13
